ffmpeg started on 2016-12-05 at 02:26:23
Report written to "Output/x264/results/ffmpeg/crowd_run_2160p50veryfast5000k.log"
Command line:
Tools/ffmpeg/ffmpeg -benchmark -y -i Input/y4m/crowd_run_2160p50.y4m -c:v libx264 -preset veryfast -b:v 5000k -an Output/x264/encoded/crowd_run_2160p50veryfast5000k.mkv
ffmpeg version N-82227-gdb23fde Copyright (c) 2000-2016 the FFmpeg developers
  built with gcc 5.4.0 (Ubuntu 5.4.0-6ubuntu1~16.04.2) 20160609
  configuration: --prefix=/home/jaroslav/ffmpeg_build --pkg-config-flags=--static --extra-cflags=-I/home/jaroslav/ffmpeg_build/include --extra-ldflags=-L/home/jaroslav/ffmpeg_build/lib --bindir=/home/jaroslav/bin --enable-gpl --enable-libass --enable-libfdk-aac --enable-libfreetype --enable-libmp3lame --enable-libopus --enable-libtheora --enable-libvorbis --enable-libvpx --enable-libx264 --enable-libx265 --enable-nvenc --enable-libmfx --enable-libxvid --enable-libgsm --enable-libopencore-amrnb --enable-version3 --enable-nonfree
  libavutil      55. 35.100 / 55. 35.100
  libavcodec     57. 66.101 / 57. 66.101
  libavformat    57. 57.100 / 57. 57.100
  libavdevice    57.  2.100 / 57.  2.100
  libavfilter     6. 66.100 /  6. 66.100
  libswscale      4.  3.100 /  4.  3.100
  libswresample   2.  4.100 /  2.  4.100
  libpostproc    54.  2.100 / 54.  2.100
Input #0, yuv4mpegpipe, from 'Input/y4m/crowd_run_2160p50.y4m':
  Duration: 00:00:10.00, start: 0.000000, bitrate: 4976642 kb/s
    Stream #0:0: Video: rawvideo (I420 / 0x30323449), yuv420p(progressive), 3840x2160, SAR 1:1 DAR 16:9, 50 fps, 50 tbr, 50 tbn, 50 tbc
[libx264 @ 0x33b61c0] using SAR=1/1
[libx264 @ 0x33b61c0] using cpu capabilities: MMX2 SSE2Fast SSSE3 SSE4.2 AVX FMA3 AVX2 LZCNT BMI2
[libx264 @ 0x33b61c0] profile High, level 5.2
[libx264 @ 0x33b61c0] 264 - core 148 - H.264/MPEG-4 AVC codec - Copyleft 2003-2016 - http://www.videolan.org/x264.html - options: cabac=1 ref=1 deblock=1:0:0 analyse=0x3:0x113 me=hex subme=2 psy=1 psy_rd=1.00:0.00 mixed_ref=0 me_range=16 chroma_me=1 trellis=0 8x8dct=1 cqm=0 deadzone=21,11 fast_pskip=1 chroma_qp_offset=0 threads=6 lookahead_threads=2 sliced_threads=0 nr=0 decimate=1 interlaced=0 bluray_compat=0 constrained_intra=0 bframes=3 b_pyramid=2 b_adapt=1 b_bias=0 direct=1 weightb=1 open_gop=0 weightp=1 keyint=250 keyint_min=25 scenecut=40 intra_refresh=0 rc_lookahead=10 rc=abr mbtree=1 bitrate=5000 ratetol=1.0 qcomp=0.60 qpmin=0 qpmax=69 qpstep=4 ip_ratio=1.40 aq=1:1.00
Output #0, matroska, to 'Output/x264/encoded/crowd_run_2160p50veryfast5000k.mkv':
  Metadata:
    encoder         : Lavf57.57.100
    Stream #0:0: Video: h264 (libx264) (H264 / 0x34363248), yuv420p, 3840x2160 [SAR 1:1 DAR 16:9], q=-1--1, 5000 kb/s, 50 fps, 1k tbn, 50 tbc
    Metadata:
      encoder         : Lavc57.66.101 libx264
    Side data:
      cpb: bitrate max/min/avg: 0/0/5000000 buffer size: 0 vbv_delay: -1
Stream mapping:
  Stream #0:0 -> #0:0 (rawvideo (native) -> h264 (libx264))
Press [q] to stop, [?] for help
frame=    7 fps=0.0 q=0.0 size=       0kB time=00:00:00.00 bitrate=N/A speed=   0x    frame=   18 fps= 15 q=0.0 size=       0kB time=00:00:00.00 bitrate=N/A speed=   0x    frame=   28 fps= 14 q=47.0 size=       1kB time=00:00:00.10 bitrate=  58.1kbits/s speed=0.0518x    frame=   37 fps= 14 q=53.0 size=       1kB time=00:00:00.28 bitrate=  20.9kbits/s speed=0.108x    frame=   53 fps= 17 q=52.0 size=       1kB time=00:00:00.60 bitrate=   9.8kbits/s speed=0.192x    frame=   67 fps= 18 q=52.0 size=       1kB time=00:00:00.88 bitrate=   6.7kbits/s speed=0.241x    frame=   82 fps= 20 q=52.0 size=       1kB time=00:00:01.18 bitrate=   5.0kbits/s speed=0.282x    frame=   89 fps= 19 q=52.0 size=       1kB time=00:00:01.32 bitrate=   4.4kbits/s speed=0.281x    frame=  102 fps= 20 q=51.0 size=       1kB time=00:00:01.58 bitrate=   3.7kbits/s speed=0.303x    frame=  117 fps= 20 q=51.0 size=       1kB time=00:00:01.88 bitrate=   3.1kbits/s speed=0.327x    frame=  131 fps= 21 q=51.0 size=       1kB time=00:00:02.16 bitrate=   2.7kbits/s speed=0.346x    frame=  146 fps= 21 q=51.0 size=       1kB time=00:00:02.46 bitrate=   2.4kbits/s speed=0.362x    frame=  152 fps= 20 q=51.0 size=       1kB time=00:00:02.58 bitrate=   2.3kbits/s speed=0.338x    frame=  167 fps= 20 q=50.0 size=       1kB time=00:00:02.88 bitrate=   2.0kbits/s speed=0.354x    frame=  182 fps= 21 q=50.0 size=       1kB time=00:00:03.18 bitrate=   1.8kbits/s speed=0.367x    frame=  197 fps= 21 q=50.0 size=       1kB time=00:00:03.48 bitrate=   1.7kbits/s speed=0.379x    frame=  211 fps= 22 q=50.0 size=       1kB time=00:00:03.76 bitrate=   1.6kbits/s speed=0.388x    frame=  218 fps= 21 q=50.0 size=       1kB time=00:00:03.90 bitrate=   1.5kbits/s speed=0.382x    frame=  233 fps= 22 q=50.0 size=       1kB time=00:00:04.20 bitrate=   1.4kbits/s speed=0.392x    frame=  247 fps= 22 q=50.0 size=       1kB time=00:00:04.48 bitrate=   1.3kbits/s speed=0.399x    frame=  262 fps= 22 q=50.0 size=       1kB time=00:00:04.78 bitrate=   1.2kbits/s speed=0.406x    frame=  272 fps= 22 q=51.0 size=    3125kB time=00:00:04.98 bitrate=5139.8kbits/s speed=0.405x    frame=  280 fps= 22 q=51.0 size=    3125kB time=00:00:05.14 bitrate=4979.8kbits/s speed=0.399x    frame=  286 fps= 21 q=51.0 size=    3125kB time=00:00:05.26 bitrate=4866.2kbits/s speed=0.391x    frame=  292 fps= 21 q=51.0 size=    3125kB time=00:00:05.38 bitrate=4757.7kbits/s speed=0.385x    frame=  305 fps= 21 q=51.0 size=    3125kB time=00:00:05.64 bitrate=4538.4kbits/s speed=0.39x    frame=  320 fps= 21 q=51.0 size=    3125kB time=00:00:05.94 bitrate=4309.3kbits/s speed=0.396x    frame=  334 fps= 22 q=51.0 size=    3125kB time=00:00:06.22 bitrate=4115.3kbits/s speed=0.401x    frame=  339 fps= 21 q=51.0 size=    3125kB time=00:00:06.32 bitrate=4050.2kbits/s speed=0.394x    frame=  353 fps= 21 q=51.0 size=    3125kB time=00:00:06.60 bitrate=3878.4kbits/s speed=0.399x    frame=  368 fps= 22 q=51.0 size=    3125kB time=00:00:06.90 bitrate=3709.8kbits/s speed=0.404x    frame=  383 fps= 22 q=51.0 size=    3125kB time=00:00:07.20 bitrate=3555.2kbits/s speed=0.408x    frame=  397 fps= 22 q=51.0 size=    3125kB time=00:00:07.48 bitrate=3422.2kbits/s speed=0.412x    frame=  410 fps= 22 q=51.0 size=    3125kB time=00:00:07.74 bitrate=3307.2kbits/s speed=0.412x    frame=  424 fps= 22 q=51.0 size=    3125kB time=00:00:08.02 bitrate=3191.8kbits/s speed=0.415x    frame=  433 fps= 22 q=51.0 size=    3125kB time=00:00:08.20 bitrate=3121.7kbits/s speed=0.41x    frame=  448 fps= 22 q=51.0 size=    3125kB time=00:00:08.50 bitrate=3011.6kbits/s speed=0.413x    frame=  454 fps= 22 q=51.0 size=    3125kB time=00:00:08.62 bitrate=2969.6kbits/s speed=0.409x    frame=  459 fps= 21 q=51.0 size=    3125kB time=00:00:08.72 bitrate=2935.6kbits/s speed=0.404x    frame=  473 fps= 21 q=51.0 size=    3125kB time=00:00:09.00 bitrate=2844.3kbits/s speed=0.407x    frame=  488 fps= 22 q=52.0 size=    3125kB time=00:00:09.30 bitrate=2752.5kbits/s speed=0.411x    frame=  500 fps= 21 q=-1.0 Lsize=    6440kB time=00:00:09.94 bitrate=5307.2kbits/s speed=0.424x    
video:6436kB audio:0kB subtitle:0kB other streams:0kB global headers:0kB muxing overhead: 0.067492%
bench: utime=59.468s
bench: maxrss=1084496kB
[libx264 @ 0x33b61c0] frame I:2     Avg QP:40.72  size:158364
[libx264 @ 0x33b61c0] frame P:126   Avg QP:49.41  size: 27279
[libx264 @ 0x33b61c0] frame B:372   Avg QP:50.53  size:  7623
[libx264 @ 0x33b61c0] consecutive B-frames:  0.8%  0.0%  0.0% 99.2%
[libx264 @ 0x33b61c0] mb I  I16..4: 34.2% 60.2%  5.5%
[libx264 @ 0x33b61c0] mb P  I16..4: 10.1% 10.2%  0.0%  P16..4: 10.1%  1.8%  0.4%  0.0%  0.0%    skip:67.3%
[libx264 @ 0x33b61c0] mb B  I16..4:  0.8%  0.3%  0.0%  B16..8:  7.1%  0.6%  0.0%  direct: 2.6%  skip:88.6%  L0:44.9% L1:54.5% BI: 0.6%
[libx264 @ 0x33b61c0] final ratefactor: 43.12
[libx264 @ 0x33b61c0] 8x8 transform intra:48.3% inter:56.8%
[libx264 @ 0x33b61c0] coded y,uvDC,uvAC intra: 11.8% 50.1% 7.9% inter: 0.2% 4.2% 0.0%
[libx264 @ 0x33b61c0] i16 v,h,dc,p: 53% 25% 15%  6%
[libx264 @ 0x33b61c0] i8 v,h,dc,ddl,ddr,vr,hd,vl,hu: 13% 10% 59%  3%  3%  3%  3%  3%  3%
[libx264 @ 0x33b61c0] i4 v,h,dc,ddl,ddr,vr,hd,vl,hu: 23% 17% 12%  9%  8%  9%  7%  8%  7%
[libx264 @ 0x33b61c0] i8c dc,h,v,p: 87%  5%  8%  0%
[libx264 @ 0x33b61c0] Weighted P-Frames: Y:1.6% UV:0.0%
[libx264 @ 0x33b61c0] kb/s:5271.79
